# xmcd
#
# Track frame offsets: 
#        150
#        13580
#        23658
#        33795
#        46589
#        58389
#        68353
#        81484
#        91779
#        104405
#        114897
#        129221
#        137475
#        148148
#        159077
#        172547
#
# Disc length: 2482 seconds
#
# Revision: 1
# Processed by: cddbd v1.5.2PL0 Copyright (c) Steve Scherf et al.
# Submitted via: ExactAudioCopyFreeDBPlugin 1.0
#
DISCID=b409b010
DTITLE=Various Artist - Golden Age of Country ''Honky Tonk Man'' - CD
DTITLE=01
DYEAR=2011
DGENRE=Country
TTITLE0=Tammy Wynette - D-I-V-O-R-C-E
TTITLE1=Merle Haggard and The Strangers - Mama Tried
TTITLE2=George Hamilton IV - Abilene
TTITLE3=Bobby Bare - Detroit City
TTITLE4=Porter Wagoner and Dolly Parton - The Last Thing on My Mind
TTITLE5=Johnny Cash - Ballad of a Teenage Queen
TTITLE6=Jerry Lee Lewis - Whole Lotta Shakin Going On
TTITLE7=Carl Perkins - Blue Suede Shoes
TTITLE8=George Jones - White Lightning
TTITLE9=Connie Smith - Once a Day
TTITLE10=David Houston - Almost Persuaded
TTITLE11=Roger Miller - Dang Me
TTITLE12=Waylon Jennings - Only Daddy That'll Walk the Line
TTITLE13=Ferlin Husky - Gone
TTITLE14=Ray Price - Heartaches by the Number
TTITLE15=Lefty Frizzell - Saginaw, Michigan
EXTD=
EXTT0=
EXTT1=
EXTT2=
EXTT3=
EXTT4=
EXTT5=
EXTT6=
EXTT7=
EXTT8=
EXTT9=
EXTT10=
EXTT11=
EXTT12=
EXTT13=
EXTT14=
EXTT15=
PLAYORDER=
